<svg xmlns="http://www.w3.org/2000/svg"><symbol id="brachiosaurus" viewBox="0 0 256 256"><path d="M59.7 166.7a36.9 36.9 0 0 0-7.6.8v.2c-.1 0-.1 0-.1.1s.3.6.8.9a12 12 0 0 0 2 1.1l2.6.9 2.8.9 2.4.6 1.4.2h2.1l2.5-.4a8.5 8.5 0 0 0 2.4-1 4.7 4.7 0 0 0 1.7-1.4 25.6 25.6 0 0 0-6.4-2.2 29 29 0 0 0-6.6-.7z"/><path d="M128 2a126 126 0 1 0 126 126A126 126 0 0 0 128 2zm82.1 69.5v.4a3.2 3.2 0 0 1-.1 1.3 15.2 15.2 0 0 1-.3 2.1l-.3 2.1a6.3 6.3 0 0 1-.3 1.3l-.9 1.8-.6 2-.6 2a14.6 14.6 0 0 1-.7 1.9c-.5 1.1-1.1 2.1-1.6 3a21.9 21.9 0 0 0-1.6 3l-19.8 27.5-.2.6-.3.2-.3.3-.4.5-1.7 2.2-2 2.9-2.2 3.2-1.9 3.2a19.4 19.4 0 0 0-1.4 3 8 8 0 0 0-.5 2.3c0 .3-.2.5-.2.7s.2.4.2.7c-.2 0-.3.1-.3.4s.1.4.3.4v10.1a2.2 2.2 0 0 1-.3 1l-.3 1.1a6.7 6.7 0 0 0-.6 1.2 3.4 3.4 0 0 0-.5 1.1v1.7a.5.5 0 0 1 0 .4c-.2.2-.2.5-.4.8s-.6.5-.7.8l-.5.4v.4c0 .1.7.2.8.4s.8.3.8.4v2.8a21.4 21.4 0 0 1-.6 3.5c-.2 1.1-.5 2.3-.8 3.4l-.6 3.5a20.7 20.7 0 0 0-.3 3.5c0 2.1 0 4.2.2 6.3s.6 4.1 1.1 6.1a43.7 43.7 0 0 0 2.1 5.7 23.9 23.9 0 0 0 3.4 5.1l-1.2.9-1.7.6-1.7.5h-1.9l-1-.3-1.2-.2-1-.3h-.7l-.7-.3a1 1 0 0 1-.6-.5c-.2-.1-.3-.4-.4-.7a17.7 17.7 0 0 0 .1-4c0-1.4-.1-2.8-.2-4.2s-.4-2.8-.5-4.3l-.6-4a3.9 3.9 0 0 0-.2-.6c-.1-.3-.1-.5-.2-.6s.1-2.3.1-3.6 0-2.7-.1-4a25.7 25.7 0 0 0-.6-4 11 11 0 0 0-1.4-3.3 3.6 3.6 0 0 0-1.5 1.7c-.2.9-.5 1.8-.7 2.7a29.3 29.3 0 0 1-.5 2.9c-.2 1-.9 1.7-.9 2.3v7.5c0 2.8-.2 5.6-.1 8.2a77.2 77.2 0 0 0 .6 8.2l.4.3.8.6.8.7a.9.9 0 0 1 .3.6c0 .2-.2.5-.8.8a7.5 7.5 0 0 1-1.8.8l-2 .9-1.3.4h-.2l-4.7-2.6c-.2-.1-.2-.4-.2-.5v-.6a28 28 0 0 1 0-2.9 14.2 14.2 0 0 0 .2-3 23.3 23.3 0 0 0-.4-3.8c-.1-1.2-.3-2.5-.5-3.7l-.6-3.7a23.4 23.4 0 0 1-.3-3.8c0-1.3.1-2.4.1-3.3a23.6 23.6 0 0 1 .4-2.8c.1-.9.3-1.8.5-2.8s.4-2 .7-3.2a2.6 2.6 0 0 0-.1-.7 2 2 0 0 1-.1-.7l-1.9.2-1.8.6a13.9 13.9 0 0 0-1.9.6l-1.9.5-1.3.2h-2.1l-1-.2h-7a45.2 45.2 0 0 0-5.3-.2H121a3.5 3.5 0 0 0-2.3.9 43.4 43.4 0 0 1 0 5.1c0 1.7-.1 3.4-.1 5.1l-.3 5c-.1 1.7-.2 3.4-.2 5.2v2.5a7.5 7.5 0 0 1 0 1.5v1c0 .6.7 1.1 1.2 1.7l1.3 1.7a8.8 8.8 0 0 1 1.2 1.7 3.2 3.2 0 0 1 .6 1.8v.4a10.7 10.7 0 0 1-4 .4c.1.4 0 .7-.2.8h-2.7a9.1 9.1 0 0 1-2.3-.3 4.8 4.8 0 0 1-1.8-.8 2.2 2.2 0 0 1-.7-1.9 4.9 4.9 0 0 1 .1-1.2l.3-1.3a6.1 6.1 0 0 0 .3-1.3 6.8 6.8 0 0 0 .2-1.4 23.4 23.4 0 0 0-.3-3.8c-.2-1.2-.4-2.4-.7-3.6s-.5-2.6-.8-3.7a29.6 29.6 0 0 1-.7-4h-.4c-.2 0-.4.8-.5.9l-.4.7-.3.5a18.8 18.8 0 0 1-1.6 2.3l-1.4 2.2a25.6 25.6 0 0 0-1.1 2.4 8.4 8.4 0 0 0-.4 2.7 4.1 4.1 0 0 0 .3 1.6l.7 1.5.8 1.2.3.5a.9.9 0 0 1-.4.8l-1 .4-1.3.3H98l-1.1-.4a2.2 2.2 0 0 1-.7-.9 10.3 10.3 0 0 1-.5-1.6c-.2-.5-.3-1.1-.5-1.6a4.5 4.5 0 0 1-.3-1.6 2.8 2.8 0 0 1 .4-1.5l.9-1.6 1.1-1.5a7.4 7.4 0 0 0 .8-1.5l2.4-5.8c.8-2 1.6-3.9 2.5-5.9l.4-.7.6-.7c.1-.3.3-.5.4-.8a1.9 1.9 0 0 0 .2-.8c0-.3-.1-.6-.4-.6H103l-8.9 2.5a2.2 2.2 0 0 1-1.3.5l-1.8.4-1.5.6a1.1 1.1 0 0 0-.7 1.1 1.9 1.9 0 0 0 .2.8l.7.7.8.5.7.6-.4.5-1.2-.9-1.4-.8-1.5-.6a3.9 3.9 0 0 0-1.5-.2 12.8 12.8 0 0 0-3.8.5l-3.9 1.1-4.1 1.1a14 14 0 0 1-4.1.5l-3.5-.3L61 179q-2.7-.7-5.4-1.8a37.7 37.7 0 0 1-4.9-2.2 15.4 15.4 0 0 1-3.7-2.7 4.2 4.2 0 0 1-1.4-2.9 4.9 4.9 0 0 1 1.1-3.3 6.7 6.7 0 0 1 2.7-1.6 13.6 13.6 0 0 1 3.5-.1 31.1 31.1 0 0 1 3.3.3h3.9c.2 0 .6-.4 1.3-.3a19.5 19.5 0 0 1 2.3.2l2.6.3 1.9.3a5.9 5.9 0 0 1 1.9.5l1.8.8 1.8.8a6.4 6.4 0 0 0 2 .3 8.8 8.8 0 0 0 4-1 30.2 30.2 0 0 0 4-2.6 40.8 40.8 0 0 0 3.9-3.1l3.2-2.6 1.9-1.3 1.8-1.1a10.4 10.4 0 0 0 1.7-1.2 6.1 6.1 0 0 0 1.5-1.7 39.1 39.1 0 0 0 2.6-4.4 33.5 33.5 0 0 1 2.7-4.5 8 8 0 0 1 1.3-1.3l1.5-.9 1.6-.9 1.6-.9 3.6-2.6 3.4-2.9 3.3-3c1.1-1 2.3-1.9 3.5-2.8a17.2 17.2 0 0 1 3.7-2.2l3.9-1.9 2.5-1.2 2.4-1.3a20.6 20.6 0 0 1 2.6-1.2l2.6-.7 22.2-3.2a12.1 12.1 0 0 0 3.5-1.2 20.2 20.2 0 0 0 3.3-2.1 42 42 0 0 0 3.2-2.9c1-1 1.9-2.1 2.8-3.2a38.2 38.2 0 0 0 2.7-3.2l2.3-2.8 7.6-8.9.4-.2.5-.6.5-.5.3-.3 2-3.2.2-.2.4-.2.4-.2.2-.2.4-.4.4-.4 1.2-1.7c.5-.6.9-1.3 1.4-2l1.3-1.9a9.5 9.5 0 0 0 .9-1.7 7.2 7.2 0 0 0 .9-2 17.2 17.2 0 0 1 .7-2.1l.7-2.2c.3-.7 1-1.4 1-2.2v-6a4.7 4.7 0 0 0-1.1-3.1 12 12 0 0 0-5.9-4.3 8.1 8.1 0 0 0-3.2-.7 21.2 21.2 0 0 0-5.7.7 10.4 10.4 0 0 0-5.1 2.6 6.2 6.2 0 0 0-1.4 1.4l-1.6 1.8-1.8 2a15.3 15.3 0 0 1-1.8 1.8 6.8 6.8 0 0 1-1.8 1.3 3.2 3.2 0 0 1-1.8.6 1.7 1.7 0 0 1-1.6-1.6v-.5a.8.8 0 0 1 .1-.4c0-.3.1-.5.1-.8a2.4 2.4 0 0 0 .2-.8 1 1 0 0 1 .1-.4 4.3 4.3 0 0 0-.3-1.7l-.6-1.3a13.4 13.4 0 0 0-.6-1.2 5.1 5.1 0 0 1-.2-1.3c.4 0 .7 0 .8-.2l.5-.6.4-.8.8-.6h2.8a1.1 1.1 0 0 0 .9-.4l.7-.7h.4c.1 0 .2.2.3.4s.1.3.1.4a.8.8 0 0 1 .4-.4l.7-.4 1.1-.6 1.3-.8 1.3-.8 1.1-.6.6-.4a13.5 13.5 0 0 1 2.1-1.3 5.8 5.8 0 0 1 1.7-.6l1.9-.2h6.4l1.5.6 1.5.3 1.5.3 1.6.5a13.7 13.7 0 0 1 4.5 3 18.1 18.1 0 0 1 3.2 4.1 21.1 21.1 0 0 1 1.7 5 24.6 24.6 0 0 1 .4 5.4v.7a2.7 2.7 0 0 1 0 .9z"/></symbol><symbol id="micropachycephalosaurus" viewBox="0 0 256 256"><path d="M132.5 150.9c-.3 0-.4.2-.4.6h-.1a.5.5 0 0 0-.5.5c0 .4.2.6.5.6s.4-.2.4-.6h.1a.5.5 0 0 0 .5-.5c0-.4-.2-.6-.5-.6zm1.4-.8l-.8.8h.3l1.1-.3a3 3 0 0 0 .8-.8h-.3zm3.1-2.5c-.3 0-.4.2-.4.5h-.2c-.3 0-.4.2-.4.6h-.1c-.3 0-.5.2-.5.6a.5.5 0 0 0 .5.5c.3 0 .4-.2.4-.5h.1c.3 0 .5-.2.5-.6h.1c.3 0 .5-.2.5-.6a.5.5 0 0 0-.5-.5zm23-5.9l-1.3 1.4a2 2 0 0 0 .8 1.1l1.2.2a2.1 2.1 0 0 0 1.3-.5 6.3 6.3 0 0 0 1.1-1.2 10.1 10.1 0 0 0 .7-1.5c.3-.5.4-1.1.5-1.1h-3.4c-.1 0-.5 1-.9 1.6z"/><path d="M128 2a126 126 0 1 0 126 126A126 126 0 0 0 128 2zm94.4 74.8a3.3 3.3 0 0 1-1.5.3h-3.7l-5.1 1.2a15.4 15.4 0 0 0-3.6 1.6 8.8 8.8 0 0 0-2.5 2.2 11.7 11.7 0 0 0-1.7 2.9 27.4 27.4 0 0 0-1.5 3.8c-.5 1.5-1.1 3.2-1.7 5.1l-1.2 3.4c-.3 1-.8 2.1-1.2 3.1s-.9 2.1-1.4 3.1-1.1 2.1-1.8 3.2a41 41 0 0 1-2.6 4.1l-2.9 3.6-3.1 3.5c-1.1 1.2-2.1 2.5-3.1 3.8a11.6 11.6 0 0 0-1.4 2.7l-.9 2.5a9.8 9.8 0 0 1-1.3 2.2 6.7 6.7 0 0 1-2.5 1.6l-1.3.5-2 .7-2.1.6-1.3.4a2.8 2.8 0 0 1 .1 2 1.4 1.4 0 0 1-.8.9l-1.2.6a1.8 1.8 0 0 0-.9 1L166 144a2.7 2.7 0 0 1-1.1 1.5 5.6 5.6 0 0 1-1.7.9 13.6 13.6 0 0 1-2 .2l-1.8-.2h-.9c-.5 0-.8.2-1.1.1s-.4-.4-.4-.9a.4.4 0 0 1 .1-.3c.1-.2.2-.2.2-.3l.3-.3c0-.1.1-.2.1-.4h-.1v-.2a27 27 0 0 0-3.4 1.7l-3.3 2-3.3 2.2-3.3 1.9-.9.5-1.1.5a4.4 4.4 0 0 0-1 .8 1.4 1.4 0 0 0-.5 1c0 .1.1.2.1.4v.2l1.8 1.6a15.4 15.4 0 0 0 1.9 1.7 15.6 15.6 0 0 0 2 1.6l2.1 1.2 1.8.7 1.9.5 1.9.7a5.1 5.1 0 0 1 1.6.9 9.3 9.3 0 0 1 1.4 1.4l1.1 1.5a13.4 13.4 0 0 0 1.1 1.4 8.6 8.6 0 0 0 1.4 1.3l1.7.6a16.6 16.6 0 0 1 2.1.6 9.5 9.5 0 0 1 1.7 1 2.1 2.1 0 0 1 .8 1.7.4.4 0 0 1-.1.3v.2l-5.6 1.2a3.5 3.5 0 0 0-1.1.3 2 2 0 0 1-1.1.3h-.6l-1.1-.6-1.7-1-1.7-1-1-.7-.2-.2-.3-.5-.4-.6-.2-.4-2.3-4.5-1.1-.4-1.8-.8-2.1-.9-2.1-.9-1.8-.9-1.1-.6-2.8-1.5a17.1 17.1 0 0 1-2.6-2.1 18.9 18.9 0 0 1-2-2.7 8.7 8.7 0 0 1-1-3.1l-.5.2-.6.4-.9.6-1.7 1.2-2.1 1.4-2.1 1.3-1.7 1.1-1 .5-5.9 3.5a22.2 22.2 0 0 0-4.5 3.4 17.3 17.3 0 0 0-3.6 4.4c-.9 1.7-.7 3.9-2.4 6.5v.3c0 .1.1.2 0 .4v.9a10 10 0 0 0 1.2 4.4 7.8 7.8 0 0 0 2.1 2.6 13 13 0 0 0 2.6 1.4l2.5.9c.8.4 1.5.4 2 1a5.3 5.3 0 0 1 .8 2h-13.2l-.2-.4c-.1-.2-.2-.1-.3-.2l-.5-.2-.6-.3a2.8 2.8 0 0 1-1.3-1.5 16 16 0 0 1-.5-2.1c0-.8.2-1.6.2-2.4a16.2 16.2 0 0 0 .3-2v-1.4a8.2 8.2 0 0 1 .3-1.8c.2-.8.3-1.7.6-2.7s.4-2 .7-3.1.6-2.1.8-3.1.5-1.9.7-2.6l.4-1.8.6-2 1-1.9a13.9 13.9 0 0 0 4.5-2.5 19.9 19.9 0 0 0 3.2-3.3c1-1.1 2-2.2 2.9-3.4a16.6 16.6 0 0 1 3.4-3l1.4-.7 2.1-.8 2.3-1 2.1-1.1 1.6-1.3a2.4 2.4 0 0 0 .6-1.5c0-.5-.1-.9-.1-1.4a1.7 1.7 0 0 0-.6-1.2l-.7-.2-1.2-.6-1.2-.5-.8-.3-2-1.2a24.8 24.8 0 0 0-2.6-1.9 25.6 25.6 0 0 0-2.5-1.6 3 3 0 0 0-1.7-.5h-7.8c-6 0-11.8-.1-17.6.1s-11.5.2-17.5.2c-4.3 0-8.6-.2-12.7-.4a121.8 121.8 0 0 1-12.3-1.3 98.3 98.3 0 0 1-11.9-2.9 83.9 83.9 0 0 1-11.7-5l-1.4-.8-1.6-1a7.4 7.4 0 0 1-1.3-1.2 3 3 0 0 1-.5-1.6 5.9 5.9 0 0 1 2.1.4l2.4.9 2.2 1 1.5.6a40.9 40.9 0 0 0 4.6 1.6 41.3 41.3 0 0 0 5 1.5l5.1 1 4.8.3H73l2.5-.4 3.3-.5 3.6-.6 3.4-.6 2.7-.6 6.8-1.3c2.4-.4 4.9-1 7.3-1.6s4.9-1.3 7.2-2.1a65 65 0 0 0 6.6-2.7l3.8-1.8 3.7-1.6 3.9-1.3a25.9 25.9 0 0 1 4.2-.9h2.8l1.7-.2 1.1-.2 1.8-.3 3.3-.7 4.1-.9 4-.9c1.2-.3 2.3-.9 3.3-1.1s1.5-.7 1.8-.7h6.5a68.2 68.2 0 0 1 7.9.7c2.5.2 5.1.5 7.8.5a10.1 10.1 0 0 0 5-1.3 20 20 0 0 0 4.4-3.4 33.3 33.3 0 0 0 3.9-5 62.2 62.2 0 0 0 3.2-5.6 52.5 52.5 0 0 0 2.5-5.5c.8-1.8 1.3-3.4 1.8-4.8s.8-2.3 1.1-3.4.7-2.2 1-3.1a10.3 10.3 0 0 1 1.2-2.6 8.6 8.6 0 0 1 1.8-2 8.2 8.2 0 0 1 2.6-1.6 12.2 12.2 0 0 1 3.7-.7h3.1c.7 1.6 1.7.9 2.9 1.3a36.8 36.8 0 0 1 3.5 1.5 12.6 12.6 0 0 1 3 1.8 2.7 2.7 0 0 1 1.2 2.1 2 2 0 0 1-.4 1.4 2.7 2.7 0 0 1-1.2.6z"/></symbol><symbol id="velociraptor" viewBox="0 0 256 256"><path d="M128 2a126 126 0 1 0 126 126A126 126 0 0 0 128 2zm108.9 115h-7.3c-3 0-6-.1-9-.4l-9.1-1-9-.9a90.8 90.8 0 0 0-9.1-.5 146.5 146.5 0 0 0-16.1 1 76.3 76.3 0 0 0-15.7 3.7l-30.2 10.9a2.4 2.4 0 0 0-1.2 1.5 22.9 22.9 0 0 0-.8 2.8l-.6 2.8a8.5 8.5 0 0 1-.6 1.9 2.7 2.7 0 0 0 1.3 1.3l2.4 1.2 2.9 1.2a11.5 11.5 0 0 1 2.7 1.4 6.3 6.3 0 0 1 2.1 1.8 4.1 4.1 0 0 1 .8 2.5 1.7 1.7 0 0 1-.5 1.2 3.6 3.6 0 0 1-1.2.8l-1.6.8-1.6.7-1.2 1.1a2.4 2.4 0 0 0-.4 1.5 3.9 3.9 0 0 0 .7 2.5 10.8 10.8 0 0 0 2 1.6l2.3 1.3a6.8 6.8 0 0 1 2.1 1.7 13.2 13.2 0 0 1 2 3.4 17.4 17.4 0 0 1 1.3 3.6c.3 1.3.6 2.5.8 3.9s.1 2.6.2 3.9l1.3 1.3v7.1h1.9l.9.3.6.2a3.2 3.2 0 0 1 .1.8c0 .2-.1.6-.1 1a5.6 5.6 0 0 1-.4 1.2c-.1.4-.4.6-.6.9s-.5.3-.9.3H143c-.2 0-.5-.5-1-.8l-1.5-.8-1.5-.8c-.5-.3-.9-.8-1.2-.8h-6.1a5 5 0 0 1 .7-3 3.9 3.9 0 0 1 1.6-1.5 8.6 8.6 0 0 1 2.1-.7l2.1-.3a3.4 3.4 0 0 0 1.6-.6 1.6 1.6 0 0 0 .7-1.4v-.6c-.2-.4-.4-1-.8-1.7s-.8-1.6-1.3-2.4l-1.5-2.5a10.1 10.1 0 0 0-1.5-1.8l-1.3-.8-1.9-.9-1.7-1.1a3.1 3.1 0 0 1-1-1c-.3-.9-.6-1.8-.9-2.9a15.1 15.1 0 0 0-1.1-3.2 6.9 6.9 0 0 0-1.7-2.6 3.7 3.7 0 0 0-2.8-1 20.6 20.6 0 0 0-6 .8 23.2 23.2 0 0 0-5.7 2.2 23.8 23.8 0 0 0-4.9 3.4 27.4 27.4 0 0 0-3.9 4.5c-.1.2-.2.2-.3.2h-.2c-.1 0-.1-.1-.1-.2s-.2-.1-.2-.3-.1-.4-.2-.6a1.4 1.4 0 0 0-.2-.6.4.4 0 0 0-.1-.3h-.3a1.4 1.4 0 0 0-1 .5l-.9 1.1-.8 1.3a3 3 0 0 1-.9 1 4.6 4.6 0 0 1-.6-1.6 8.1 8.1 0 0 1-.1-1.6 9.2 9.2 0 0 1 .4-2.9l.9-2.8.9-2.5a15.9 15.9 0 0 0 .4-2.8h-4.9c0-1.6.2-1.8.6-2.3a6.1 6.1 0 0 1 1.6-1.6 7.8 7.8 0 0 1 2.1-.9l2.1-.3 3 .2 2.9.5 2.9.4a13.7 13.7 0 0 0 2.9.2h2.3a3 3 0 0 0-1.7-1.4l-2.5-.4-2.7-.2c-.9-.1-1.6.1-2.2-.2l-3.8-2.2h-.3a10.7 10.7 0 0 0-3.1 0 16.7 16.7 0 0 1-3.2.2 6.5 6.5 0 0 1-2.9-.7l-2.7-1.4-2.5-1.3a5.4 5.4 0 0 0-2.9-.7v6h1.6l1-.3.8-.5c.4-.2.4-.5.9-.7h.6v2.7l2-.7c0 .1.2.3.2.5a4.3 4.3 0 0 0 .1.5 5.6 5.6 0 0 1-1.3 3.9 17.8 17.8 0 0 1-3.2 2.8 25 25 0 0 0-4.5-1.2l-4.8-.7v-7.7l-1.7.5a12.4 12.4 0 0 0-2 1 10.5 10.5 0 0 0-1.9 1.2c-.5.4-1 .8-1 1.2v6.8a9.6 9.6 0 0 0 3-.3 7.6 7.6 0 0 0 1.8-.6l1.2-.6 1.2-.2h.4a2.7 2.7 0 0 0 .3.8 8.3 8.3 0 0 1 .4 1.2 6.5 6.5 0 0 1 .4 1.3 5.1 5.1 0 0 1 .2.9 4.3 4.3 0 0 1-.4 1.9 5.4 5.4 0 0 1-1.1 1.8 4.7 4.7 0 0 1-1.5 1.3 3.2 3.2 0 0 1-1.8.6h-1l-3-.5-3.6-.7a9.3 9.3 0 0 1-3.2-1.3 2.5 2.5 0 0 1-1.5-2v-12l.9-.8 1.9-1.6 2.3-2.2a18.8 18.8 0 0 0 2.4-2.5 20.3 20.3 0 0 0 1.8-2.6 5.4 5.4 0 0 0 .7-2.6 4 4 0 0 0-1.1-2.7 11 11 0 0 0-2.8-2 17.3 17.3 0 0 0-3.2-1.4l-2.6-.9-1.3-9a13.1 13.1 0 0 0-.6-2.7 9.6 9.6 0 0 0-1.1-2.8 6.8 6.8 0 0 0-1.7-2.1 4.5 4.5 0 0 0-2.6-.8 12.8 12.8 0 0 0-3.6.4 13 13 0 0 0-3.2 1.5l-1.7 1-2.5 1.5-2.9 1.8-3 1.7c-.9.5-1.7 1.2-2.5 1.6s-1.3 1.1-1.6 1.1h-1l-1.7-.2-2.1-.4c-.6-.1-.8-.4-1.3-.7s-.4-.8-.4-1.4v-1.8c0-.6-.2-.9.1-1h1.5v-.4c.1-.3.1-.5.2-.8s.1-.6.2-.9v-.5l-.8-.8-.9-.5-.7-.6a2.3 2.3 0 0 1-.3-1.3 2.6 2.6 0 0 1 .3-1.1 7.5 7.5 0 0 1 .7-1.2c.2-.3.2-.6.6-.9l.8-.3v.8c0 .5.4 1 .5 1.5a1.4 1.4 0 0 0 1.2.7 1.6 1.6 0 0 0 1.1-.5 5.2 5.2 0 0 0 1-1.1c.2-.4.4-1.2.6-1.6s.2.2.2-1.4H22.5a1.5 1.5 0 0 1-.8-.5l-1.1-.6-.9-.8a1.8 1.8 0 0 1-.4-1.1 4.5 4.5 0 0 1 1.1-3.1 6.8 6.8 0 0 1 2.6-1.8 15 15 0 0 1 3.2-1 15.8 15.8 0 0 0 2.8-.8l2.2-.9 3.3-1.6 3.3-1.5a10.7 10.7 0 0 1 2.2-1.1h13.5a7.2 7.2 0 0 1 3.8 1 14.8 14.8 0 0 1 3.1 2.5 28.5 28.5 0 0 1 2.5 3.3c.8 1.1 1.5 2.2 2.3 3.2a11.6 11.6 0 0 0 2.2 2.6 3.9 3.9 0 0 0 2.5 1 .8.8 0 0 0 .7-.4 1 1 0 0 1 .9-.4 4 4 0 0 1 1.5.3l1.5.7 1.5.7 1.5.3 4.1-.2 4.1-.4 4-.5a28.3 28.3 0 0 1 4.1-.3c2.5 0 4.9.2 7.2.4a38.9 38.9 0 0 1 7.2 1.6 52.1 52.1 0 0 1 5 2l5.1 2.1 5.1 1.8a25 25 0 0 0 5.4.7h2.6l12.7-2.6c4.3-.9 8.5-1.7 12.7-2.3s8.6-1.2 12.8-1.5 8.7-.6 13-.6h8.8c1.8.1 3.5.7 5 .9l36.1 7.2h11.6c-.8 0-1.9 1-3.1 1.4a27.5 27.5 0 0 1-4.1.1z"/></symbol></svg>